<mxfile host="Electron" modified="2023-09-23T16:33:09.439Z" agent="Mozilla/5.0 (Windows NT 10.0; Win64; x64) AppleWebKit/537.36 (KHTML, like Gecko) draw.io/21.6.8 Chrome/114.0.5735.289 Electron/25.5.0 Safari/537.36" etag="7bGJbzgbnez63YmBthg8" version="21.6.8" type="device">
  <diagram id="prtHgNgQTEPvFCAcTncT" name="Page-1">
    <mxGraphModel dx="503" dy="304" grid="1" gridSize="5" guides="1" tooltips="1" connect="1" arrows="1" fold="1" page="1" pageScale="1" pageWidth="1600" pageHeight="900" background="none" math="0" shadow="0">
      <root>
        <mxCell id="0" />
        <mxCell id="1" parent="0" />
        <mxCell id="bg21X9tkaUSZAUKivtD--1" value="Gerente Sucursal" style="rounded=0;whiteSpace=wrap;html=1;fontSize=5;" parent="1" vertex="1">
          <mxGeometry x="373" y="45" width="40" height="20" as="geometry" />
        </mxCell>
        <mxCell id="bg21X9tkaUSZAUKivtD--9" value="Registros" style="rounded=0;whiteSpace=wrap;html=1;fontSize=5;" parent="1" vertex="1">
          <mxGeometry x="365" y="194.82" width="40" height="25" as="geometry" />
        </mxCell>
        <mxCell id="bg21X9tkaUSZAUKivtD--10" value="Servicios Médicos" style="rounded=0;whiteSpace=wrap;html=1;fontSize=5;" parent="1" vertex="1">
          <mxGeometry x="365" y="164.82" width="40" height="25" as="geometry" />
        </mxCell>
        <mxCell id="bg21X9tkaUSZAUKivtD--18" value="" style="endArrow=none;html=1;rounded=0;" parent="1" edge="1">
          <mxGeometry width="50" height="50" relative="1" as="geometry">
            <mxPoint x="393" y="75" as="sourcePoint" />
            <mxPoint x="393" y="65" as="targetPoint" />
          </mxGeometry>
        </mxCell>
        <mxCell id="bg21X9tkaUSZAUKivtD--39" value="Instalaciones y Montajes" style="rounded=0;whiteSpace=wrap;html=1;fontSize=5;" parent="1" vertex="1">
          <mxGeometry x="295" y="80" width="40" height="25" as="geometry" />
        </mxCell>
        <mxCell id="bg21X9tkaUSZAUKivtD--40" value="Comercialización" style="rounded=0;whiteSpace=wrap;html=1;fontSize=5;" parent="1" vertex="1">
          <mxGeometry x="450.5" y="80" width="40" height="25" as="geometry" />
        </mxCell>
        <mxCell id="bg21X9tkaUSZAUKivtD--41" value="Administración" style="rounded=0;whiteSpace=wrap;html=1;fontSize=5;" parent="1" vertex="1">
          <mxGeometry x="373" y="79.82" width="40" height="25" as="geometry" />
        </mxCell>
        <mxCell id="bg21X9tkaUSZAUKivtD--42" value="Capacitación" style="rounded=0;whiteSpace=wrap;html=1;fontSize=5;" parent="1" vertex="1">
          <mxGeometry x="365" y="224.82" width="40" height="25" as="geometry" />
        </mxCell>
        <mxCell id="bg21X9tkaUSZAUKivtD--45" value="" style="endArrow=none;html=1;rounded=0;exitX=0.5;exitY=0;exitDx=0;exitDy=0;" parent="1" source="bg21X9tkaUSZAUKivtD--39" edge="1">
          <mxGeometry width="50" height="50" relative="1" as="geometry">
            <mxPoint x="475" y="165" as="sourcePoint" />
            <mxPoint x="315" y="75" as="targetPoint" />
          </mxGeometry>
        </mxCell>
        <mxCell id="bg21X9tkaUSZAUKivtD--47" value="" style="endArrow=none;html=1;rounded=0;" parent="1" edge="1">
          <mxGeometry width="50" height="50" relative="1" as="geometry">
            <mxPoint x="391.83" y="79.82" as="sourcePoint" />
            <mxPoint x="391.83" y="74.82" as="targetPoint" />
          </mxGeometry>
        </mxCell>
        <mxCell id="bg21X9tkaUSZAUKivtD--48" value="" style="endArrow=none;html=1;rounded=0;exitX=0.5;exitY=0;exitDx=0;exitDy=0;" parent="1" source="bg21X9tkaUSZAUKivtD--40" edge="1">
          <mxGeometry width="50" height="50" relative="1" as="geometry">
            <mxPoint x="285.5" y="165" as="sourcePoint" />
            <mxPoint x="470.5" y="75" as="targetPoint" />
          </mxGeometry>
        </mxCell>
        <mxCell id="bg21X9tkaUSZAUKivtD--49" value="" style="endArrow=none;html=1;rounded=0;entryX=0.5;entryY=1;entryDx=0;entryDy=0;" parent="1" edge="1">
          <mxGeometry width="50" height="50" relative="1" as="geometry">
            <mxPoint x="355" y="239.82" as="sourcePoint" />
            <mxPoint x="355" y="144.82" as="targetPoint" />
          </mxGeometry>
        </mxCell>
        <mxCell id="bg21X9tkaUSZAUKivtD--60" value="" style="endArrow=none;html=1;rounded=0;exitX=0;exitY=0.75;exitDx=0;exitDy=0;" parent="1" edge="1">
          <mxGeometry width="50" height="50" relative="1" as="geometry">
            <mxPoint x="473.5" y="208.57000000000002" as="sourcePoint" />
            <mxPoint x="458.5" y="208.48" as="targetPoint" />
          </mxGeometry>
        </mxCell>
        <mxCell id="bg21X9tkaUSZAUKivtD--85" value="Org. Municipales" style="rounded=0;whiteSpace=wrap;html=1;fontSize=5;" parent="1" vertex="1">
          <mxGeometry x="473.5" y="128.14" width="40" height="25" as="geometry" />
        </mxCell>
        <mxCell id="kjkgU98nhni_tzu0HvUh-11" value="" style="endArrow=none;html=1;rounded=0;exitX=0;exitY=0.75;exitDx=0;exitDy=0;" parent="1" source="bg21X9tkaUSZAUKivtD--10" edge="1">
          <mxGeometry width="50" height="50" relative="1" as="geometry">
            <mxPoint x="370" y="184.82" as="sourcePoint" />
            <mxPoint x="355" y="183.82" as="targetPoint" />
          </mxGeometry>
        </mxCell>
        <mxCell id="kjkgU98nhni_tzu0HvUh-17" value="" style="endArrow=none;html=1;rounded=0;exitX=-0.01;exitY=0.64;exitDx=0;exitDy=0;exitPerimeter=0;" parent="1" source="bg21X9tkaUSZAUKivtD--9" edge="1">
          <mxGeometry width="50" height="50" relative="1" as="geometry">
            <mxPoint x="305" y="189.82" as="sourcePoint" />
            <mxPoint x="355" y="210.82" as="targetPoint" />
          </mxGeometry>
        </mxCell>
        <mxCell id="kjkgU98nhni_tzu0HvUh-19" value="" style="endArrow=none;html=1;rounded=0;exitX=0;exitY=0.5;exitDx=0;exitDy=0;" parent="1" source="bg21X9tkaUSZAUKivtD--85" edge="1">
          <mxGeometry width="50" height="50" relative="1" as="geometry">
            <mxPoint x="463.5" y="88.13999999999999" as="sourcePoint" />
            <mxPoint x="458.5" y="141.14" as="targetPoint" />
          </mxGeometry>
        </mxCell>
        <mxCell id="7cUdnHOEPG1iPGDejOsI-12" value="" style="endArrow=none;html=1;rounded=0;exitX=0;exitY=0.6;exitDx=0;exitDy=0;exitPerimeter=0;" parent="1" edge="1">
          <mxGeometry width="50" height="50" relative="1" as="geometry">
            <mxPoint x="365" y="239.82" as="sourcePoint" />
            <mxPoint x="355" y="239.82" as="targetPoint" />
          </mxGeometry>
        </mxCell>
        <mxCell id="7cUdnHOEPG1iPGDejOsI-14" value="Empresas Privadas" style="rounded=0;whiteSpace=wrap;html=1;fontSize=5;" parent="1" vertex="1">
          <mxGeometry x="473.5" y="188.48" width="40" height="25" as="geometry" />
        </mxCell>
        <mxCell id="bg21X9tkaUSZAUKivtD--43" value="Org. Provinciales" style="rounded=0;whiteSpace=wrap;html=1;fontSize=5;" parent="1" vertex="1">
          <mxGeometry x="473.5" y="158.14" width="40" height="25" as="geometry" />
        </mxCell>
        <mxCell id="ujyH8u7Fe0etUauKKCHA-38" value="&lt;font color=&quot;#e2a703&quot; style=&quot;font-size: 8px;&quot;&gt;Por función&lt;/font&gt;" style="text;html=1;strokeColor=none;fillColor=none;align=center;verticalAlign=middle;whiteSpace=wrap;rounded=0;fontSize=20;fontFamily=Architects Daughter;" parent="1" vertex="1">
          <mxGeometry x="357" y="134.82" width="60" height="30" as="geometry" />
        </mxCell>
        <mxCell id="ujyH8u7Fe0etUauKKCHA-47" value="" style="endArrow=none;html=1;rounded=0;exitX=0.15;exitY=1.04;exitDx=0;exitDy=0;exitPerimeter=0;" parent="1" edge="1">
          <mxGeometry width="50" height="50" relative="1" as="geometry">
            <mxPoint x="459" y="104.82" as="sourcePoint" />
            <mxPoint x="459" y="233.82" as="targetPoint" />
            <Array as="points" />
          </mxGeometry>
        </mxCell>
        <mxCell id="ujyH8u7Fe0etUauKKCHA-48" value="" style="endArrow=none;html=1;rounded=0;exitX=0.5;exitY=1;exitDx=0;exitDy=0;" parent="1" source="bg21X9tkaUSZAUKivtD--41" edge="1">
          <mxGeometry width="50" height="50" relative="1" as="geometry">
            <mxPoint x="382" y="104.47999999999999" as="sourcePoint" />
            <mxPoint x="393" y="114.82" as="targetPoint" />
            <Array as="points" />
          </mxGeometry>
        </mxCell>
        <mxCell id="sj4mitv78eoxQAuaZzCk-24" value="" style="endArrow=none;html=1;rounded=0;exitX=0;exitY=0.75;exitDx=0;exitDy=0;" parent="1" source="bg21X9tkaUSZAUKivtD--43" edge="1">
          <mxGeometry width="50" height="50" relative="1" as="geometry">
            <mxPoint x="418.5" y="193.14" as="sourcePoint" />
            <mxPoint x="458.5" y="178.14" as="targetPoint" />
          </mxGeometry>
        </mxCell>
        <mxCell id="CdiMp5uzw_uthA3Ysxdz-11" value="&lt;font color=&quot;#e2a703&quot; style=&quot;font-size: 8px;&quot;&gt;Por función&lt;/font&gt;" style="text;html=1;strokeColor=none;fillColor=none;align=center;verticalAlign=middle;whiteSpace=wrap;rounded=0;fontSize=20;fontFamily=Architects Daughter;" parent="1" vertex="1">
          <mxGeometry x="390.5" y="90" width="60" height="30" as="geometry" />
        </mxCell>
        <mxCell id="CdiMp5uzw_uthA3Ysxdz-18" value="&lt;font color=&quot;#e2a703&quot; style=&quot;font-size: 8px;&quot;&gt;Por Clientes&lt;/font&gt;" style="text;html=1;strokeColor=none;fillColor=none;align=center;verticalAlign=middle;whiteSpace=wrap;rounded=0;fontSize=20;fontFamily=Architects Daughter;" parent="1" vertex="1">
          <mxGeometry x="458.5" y="98.13999999999999" width="60" height="30" as="geometry" />
        </mxCell>
        <mxCell id="CdiMp5uzw_uthA3Ysxdz-38" value="Caja" style="rounded=0;whiteSpace=wrap;html=1;fontSize=5;" parent="1" vertex="1">
          <mxGeometry x="400.5" y="119.82" width="40" height="25" as="geometry" />
        </mxCell>
        <mxCell id="CdiMp5uzw_uthA3Ysxdz-39" value="" style="endArrow=none;html=1;rounded=0;sketch=1;hachureGap=4;jiggle=2;curveFitting=1;fontFamily=Architects Daughter;fontSource=https://fonts.googleapis.com/css?family=Architects+Daughter;fontSize=16;exitX=0.5;exitY=0;exitDx=0;exitDy=0;" parent="1" source="CdiMp5uzw_uthA3Ysxdz-38" edge="1">
          <mxGeometry width="50" height="50" relative="1" as="geometry">
            <mxPoint x="425.5" y="209.82" as="sourcePoint" />
            <mxPoint x="420.5" y="114.82" as="targetPoint" />
          </mxGeometry>
        </mxCell>
        <mxCell id="CdiMp5uzw_uthA3Ysxdz-40" value="Personal" style="rounded=0;whiteSpace=wrap;html=1;fontSize=5;" parent="1" vertex="1">
          <mxGeometry x="345.5" y="119.82" width="40" height="25" as="geometry" />
        </mxCell>
        <mxCell id="CdiMp5uzw_uthA3Ysxdz-41" value="" style="endArrow=none;html=1;rounded=0;sketch=1;hachureGap=4;jiggle=2;curveFitting=1;fontFamily=Architects Daughter;fontSource=https://fonts.googleapis.com/css?family=Architects+Daughter;fontSize=16;exitX=0.5;exitY=0;exitDx=0;exitDy=0;" parent="1" source="CdiMp5uzw_uthA3Ysxdz-40" edge="1">
          <mxGeometry width="50" height="50" relative="1" as="geometry">
            <mxPoint x="425.5" y="174.82" as="sourcePoint" />
            <mxPoint x="365.5" y="114.82" as="targetPoint" />
          </mxGeometry>
        </mxCell>
        <mxCell id="CdiMp5uzw_uthA3Ysxdz-42" value="" style="endArrow=none;html=1;rounded=0;" parent="1" edge="1">
          <mxGeometry width="50" height="50" relative="1" as="geometry">
            <mxPoint x="365.5" y="114.82" as="sourcePoint" />
            <mxPoint x="420.5" y="114.82" as="targetPoint" />
            <Array as="points" />
          </mxGeometry>
        </mxCell>
        <mxCell id="CdiMp5uzw_uthA3Ysxdz-48" value="Profesional de Construcción" style="rounded=0;whiteSpace=wrap;html=1;fontSize=5;" parent="1" vertex="1">
          <mxGeometry x="473.5" y="218.82" width="40" height="25" as="geometry" />
        </mxCell>
        <mxCell id="CdiMp5uzw_uthA3Ysxdz-59" value="" style="endArrow=none;html=1;rounded=0;" parent="1" edge="1">
          <mxGeometry width="50" height="50" relative="1" as="geometry">
            <mxPoint x="473" y="233.82" as="sourcePoint" />
            <mxPoint x="458" y="233.82" as="targetPoint" />
          </mxGeometry>
        </mxCell>
        <mxCell id="tQWB0tjwz82CBHFkxsTC-1" value="&lt;font color=&quot;#e2a703&quot; style=&quot;font-size: 8px;&quot;&gt;Por función&lt;/font&gt;" style="text;html=1;strokeColor=none;fillColor=none;align=center;verticalAlign=middle;whiteSpace=wrap;rounded=0;fontSize=20;fontFamily=Architects Daughter;" vertex="1" parent="1">
          <mxGeometry x="313" y="49.82" width="60" height="30" as="geometry" />
        </mxCell>
        <mxCell id="tQWB0tjwz82CBHFkxsTC-2" value="" style="endArrow=none;html=1;rounded=0;" edge="1" parent="1">
          <mxGeometry width="50" height="50" relative="1" as="geometry">
            <mxPoint x="315" y="75" as="sourcePoint" />
            <mxPoint x="470" y="75" as="targetPoint" />
            <Array as="points" />
          </mxGeometry>
        </mxCell>
      </root>
    </mxGraphModel>
  </diagram>
</mxfile>
